<svg width="48" height="40" viewBox="0 0 48 40" fill="none" xmlns="http://www.w3.org/2000/svg">
<rect width="48" height="40" rx="4" fill="#EEEEEE"/>
<path d="M39.8841 21.3901C39.6441 18.6119 39.2487 18.0709 39.0993 17.8674C38.756 17.3971 38.2065 17.0898 37.6251 16.7674C37.5922 16.7494 37.5639 16.7239 37.5422 16.6927C37.5205 16.6615 37.5062 16.6256 37.5003 16.5877C37.4944 16.5499 37.4972 16.5111 37.5083 16.4745C37.5194 16.4379 37.5386 16.4045 37.5645 16.3769C37.6721 16.2643 37.7549 16.129 37.807 15.9803C37.8592 15.8316 37.8794 15.673 37.8665 15.5154C37.8414 15.236 37.7154 14.9766 37.5135 14.7885C37.3116 14.6004 37.0484 14.4974 36.7763 14.5H35.7362C35.6916 14.5003 35.6471 14.5033 35.6028 14.5089C35.5725 14.4954 35.541 14.4845 35.5088 14.4766C34.8927 13.1339 34.0493 11.2956 32.301 10.3984C29.708 9.06875 24.9313 9 23.9978 9C23.0643 9 18.2876 9.06875 15.6979 10.3963C13.9496 11.2935 13.1062 13.1319 12.4901 14.4746L12.4848 14.4856C12.454 14.49 12.4239 14.4979 12.3947 14.5089C12.3505 14.5033 12.306 14.5003 12.2614 14.5H11.2192C10.9471 14.4974 10.684 14.6004 10.4821 14.7885C10.2802 14.9766 10.1542 15.236 10.1291 15.5154C10.1172 15.6726 10.1385 15.8306 10.1913 15.9786C10.2441 16.1265 10.3273 16.261 10.4351 16.3728C10.4609 16.4004 10.4802 16.4338 10.4913 16.4704C10.5024 16.507 10.5051 16.5457 10.4993 16.5836C10.4934 16.6215 10.479 16.6574 10.4574 16.6886C10.4357 16.7198 10.4073 16.7453 10.3745 16.7633C9.79303 17.0878 9.24095 17.3951 8.90024 17.8633C8.75088 18.0695 8.35616 18.6078 8.11545 21.386C7.9821 22.9494 7.9621 24.5678 8.06678 25.61C8.28615 27.7756 8.69754 29.0846 8.71488 29.1389C8.778 29.3366 8.89421 29.5117 9.05 29.644C9.20579 29.7763 9.39477 29.8603 9.595 29.8862V29.9C9.595 30.1917 9.7074 30.4715 9.90747 30.6778C10.1075 30.8841 10.3789 31 10.6618 31H14.3957C14.6786 31 14.95 30.8841 15.1501 30.6778C15.3501 30.4715 15.4625 30.1917 15.4625 29.9C16.0366 29.9 16.436 29.7941 16.8594 29.6814C17.4707 29.5115 18.0955 29.3986 18.7263 29.3438C20.7606 29.1438 22.7836 29.075 23.9978 29.075C25.1873 29.075 27.2996 29.1438 29.3372 29.3438C29.9706 29.3987 30.5979 29.5121 31.2115 29.6828C31.6169 29.79 32.0016 29.889 32.5344 29.8993C32.5344 30.1911 32.6468 30.4708 32.8468 30.6771C33.0469 30.8834 33.3183 30.9993 33.6012 30.9993H37.3351C37.618 30.9993 37.8894 30.8834 38.0894 30.6771C38.2895 30.4708 38.4019 30.1911 38.4019 29.8993V29.8911C38.6026 29.8656 38.7922 29.7818 38.9485 29.6495C39.1048 29.5172 39.2214 29.3418 39.2847 29.1438C39.302 29.0894 39.7134 27.7804 39.9328 25.6148C40.0375 24.5719 40.0188 22.9563 39.8841 21.3901V21.3901ZM14.4184 15.4151C14.9518 14.2463 15.5619 12.9236 16.648 12.366C18.2176 11.5603 21.4708 11.1972 23.9978 11.1972C26.5248 11.1972 29.778 11.5575 31.3475 12.366C32.4337 12.9236 33.0411 14.247 33.5772 15.4151L33.6439 15.5642C33.6829 15.6492 33.7001 15.743 33.6939 15.8367C33.6878 15.9305 33.6584 16.0211 33.6087 16.0998C33.5589 16.1785 33.4905 16.2428 33.4098 16.2865C33.3291 16.3302 33.2389 16.3518 33.1478 16.3494C30.9321 16.2875 26.2648 16.0895 23.9978 16.0895C21.7308 16.0895 17.0634 16.2923 14.8444 16.3542C14.7533 16.3566 14.6632 16.335 14.5825 16.2913C14.5018 16.2476 14.4333 16.1833 14.3836 16.1046C14.3338 16.0259 14.3045 15.9353 14.2983 15.8416C14.2921 15.7478 14.3094 15.654 14.3484 15.5691C14.3717 15.5182 14.3964 15.4666 14.4184 15.4151V15.4151ZM15.2138 20.8896C14.0669 21.032 12.9126 21.1022 11.7573 21.1C11.0506 21.1 10.3218 20.8938 10.1864 20.2448C10.0937 19.8082 10.1037 19.5628 10.1538 19.3159C10.1958 19.1063 10.2624 18.9536 10.5958 18.9C11.4626 18.7625 11.9474 18.9351 13.3662 19.3661C14.307 19.6514 14.9858 20.0316 15.3725 20.3327C15.5665 20.4813 15.4632 20.869 15.2138 20.8896ZM29.9747 26.5271C29.0972 26.6303 27.3423 26.5924 24.0178 26.5924C20.6933 26.5924 18.939 26.6303 18.0616 26.5271C17.1561 26.4233 16.0019 25.5406 16.7901 24.7541C17.3148 24.2357 18.539 23.8479 20.1692 23.63C21.7995 23.4121 22.4896 23.3 24.0111 23.3C25.5327 23.3 26.1528 23.3688 27.853 23.6307C29.5533 23.8926 30.8381 24.2852 31.2322 24.7548C31.951 25.5963 30.8795 26.4178 29.9747 26.5313V26.5271ZM37.8092 20.2441C37.6758 20.8958 36.9424 21.0993 36.2383 21.0993C35.0609 21.0996 33.8845 21.0294 32.7151 20.8889C32.511 20.869 32.4164 20.4998 32.6231 20.3321C33.0038 20.0234 33.6899 19.6508 34.6294 19.3654C36.0482 18.9344 36.8664 18.7618 37.5691 18.9055C37.7405 18.9406 37.8312 19.1303 37.8418 19.2493C37.8889 19.5804 37.8778 19.9176 37.8092 20.2448V20.2441Z" fill="black" fill-opacity="0.24"/>
</svg>
