<svg width="72" height="72" viewBox="0 0 72 72" fill="none" xmlns="http://www.w3.org/2000/svg">
<path fill-rule="evenodd" clip-rule="evenodd" d="M46 72L72 26.9667L26.9667 0.966677L0.966677 46L46 72Z" fill="white"/>
<path fill-rule="evenodd" clip-rule="evenodd" d="M15.9535 24.6304C9.40736 35.9687 13.2924 50.4672 24.6304 57.0132C35.9686 63.5594 50.4671 59.6745 57.0132 48.3363C63.5595 36.9978 59.6745 22.4996 48.3363 15.9535C36.9983 9.40752 22.4997 13.292 15.9535 24.6304V24.6304Z" fill="black"/>
<path fill-rule="evenodd" clip-rule="evenodd" d="M33.3854 34.6873L16.8633 47.3723C12.9899 40.4534 13.0635 32.0105 17.0614 25.168C21.0314 18.3327 28.3324 14.0861 36.2576 14.0269L33.3854 34.6873V34.6873ZM36.5908 40.3875L55.7191 47.8898C51.6778 54.6839 44.3443 58.8639 36.4319 58.8593C28.5093 58.8724 21.1799 54.6884 17.1532 47.871L36.5908 40.3875V40.3875ZM39.6401 34.567L36.8515 14.0374C44.7274 14.1871 51.9417 18.4476 55.8561 25.2944C57.7862 28.6514 58.8144 32.4508 58.8405 36.323C58.8667 40.1952 57.8899 44.0082 56.0053 47.3909L39.6401 34.567V34.567Z" fill="white"/>
</svg>
