<svg width="10" height="12" viewBox="0 0 10 12" fill="none" xmlns="http://www.w3.org/2000/svg">
<path d="M9.20853 5.47932V6.06756C9.20853 6.87638 9.10313 7.60187 8.89235 8.24403C8.68156 8.88618 8.38009 9.43275 7.98794 9.88373C7.60068 10.3347 7.135 10.6803 6.59088 10.9205C6.04676 11.1558 5.44382 11.2734 4.78205 11.2734C4.12519 11.2734 3.5247 11.1558 2.98058 10.9205C2.44137 10.6803 1.97323 10.3347 1.57617 9.88373C1.17911 9.43275 0.87029 8.88618 0.649701 8.24403C0.434015 7.60187 0.326172 6.87638 0.326172 6.06756V5.47932C0.326172 4.6705 0.434015 3.94746 0.649701 3.3102C0.865388 2.66805 1.16931 2.12148 1.56147 1.6705C1.95852 1.21461 2.42666 0.869026 2.96588 0.633732C3.51 0.393536 4.11049 0.273438 4.76735 0.273438C5.42911 0.273438 6.03205 0.393536 6.57617 0.633732C7.12029 0.869026 7.58843 1.21461 7.98058 1.6705C8.37274 2.12148 8.67421 2.66805 8.885 3.3102C9.10068 3.94746 9.20853 4.6705 9.20853 5.47932ZM7.36294 6.06756V5.46461C7.36294 4.86657 7.30411 4.33961 7.18647 3.88373C7.07372 3.42295 6.9046 3.03814 6.67911 2.72932C6.45852 2.41559 6.18647 2.1803 5.86294 2.02344C5.53941 1.86167 5.17421 1.78079 4.76735 1.78079C4.36049 1.78079 3.99774 1.86167 3.67911 2.02344C3.36049 2.1803 3.08843 2.41559 2.86294 2.72932C2.64235 3.03814 2.47323 3.42295 2.35558 3.88373C2.23794 4.33961 2.17911 4.86657 2.17911 5.46461V6.06756C2.17911 6.66559 2.23794 7.19501 2.35558 7.65579C2.47323 8.11657 2.6448 8.50628 2.87029 8.82491C3.10068 9.13863 3.37519 9.37638 3.69382 9.53814C4.01245 9.69501 4.37519 9.77344 4.78205 9.77344C5.19382 9.77344 5.55902 9.69501 5.87764 9.53814C6.19627 9.37638 6.46588 9.13863 6.68647 8.82491C6.90705 8.50628 7.07372 8.11657 7.18647 7.65579C7.30411 7.19501 7.36294 6.66559 7.36294 6.06756Z" fill="#F25037"/>
</svg>
